<svg width="72" height="69" viewBox="0 0 72 69" fill="none" xmlns="http://www.w3.org/2000/svg">
<path fill-rule="evenodd" clip-rule="evenodd" d="M33.625 2.15233L30.8007 10.8538C29.5162 14.736 28.2586 18.5876 27.0366 22.4525C26.6861 23.5604 26.3127 24.2842 25.0935 24.4724L13.632 24.5098C11.6035 24.5098 3.73537 24.3975 2.09953 24.5165C0.569282 24.6289 0.321601 25.7914 0 26.306V27.2199C0.945602 28.8644 0.474241 28.1866 2.11585 29.3665C2.62177 29.7294 2.87329 29.9482 3.33217 30.2564C3.79873 30.5694 4.13953 30.8823 4.61953 31.1982L19.4641 42.0049C20.7121 43.3489 19.3344 46.1262 18.5876 48.4523L13.3594 64.541C12.9572 65.7775 12.4925 66.7787 13.4756 67.8213C15.1277 69.5723 17.0448 67.7944 19.0215 66.2383L33.8708 55.4363C35.6622 54.1672 36.4148 54.1441 38.2062 55.6062C39.6999 56.8254 42.9649 58.9499 44.4558 60.1413C44.9176 60.5109 45.2872 60.7202 45.6836 61.0206C46.1761 61.3941 46.4392 61.588 46.9038 61.9067C49.3729 63.6021 53.2686 66.7394 55.5755 68.2255C57.0961 69.2047 59.3358 67.949 58.9384 65.8591C58.7761 65.0075 58.2069 63.5627 57.9093 62.6718L52.6542 46.4872C51.2037 41.7534 51.363 42.8526 56.3656 39.1374C58.4469 37.5927 61.9355 35.1889 63.8114 33.698L71.2168 28.3383C72.0405 27.5281 72.0357 25.97 71.165 25.1261C70.2952 24.2823 68.9531 24.5069 67.539 24.5069C63.9189 24.5069 47.2331 24.698 46.2971 24.3409C45.2036 23.9252 45.0222 23.0737 44.6267 21.7949C44.2907 20.7082 43.9336 19.6301 43.564 18.5233L39.3726 5.61121C39.0174 4.52161 38.6708 3.51457 38.3377 2.43265C37.7857 0.639361 37.73 0.851522 36.387 0H35.4894C34.3134 0.735362 34.1271 0.534721 33.625 2.14945V2.15233ZM9.65762 26.6996C10.9277 26.6065 17.0372 26.6938 18.6125 26.6938L27.5118 26.665C28.4583 26.5191 28.7492 25.9575 29.0209 25.0973C29.9703 22.0964 30.9466 19.106 31.9441 16.0916L34.1367 9.33506C34.5265 8.0813 34.6715 8.23682 35.5844 7.66562H36.2814C37.3239 8.32706 37.3681 8.1629 37.7963 9.55491C38.0545 10.3949 38.3233 11.1763 38.5998 12.0231L41.8542 22.0493C42.1412 22.9095 42.4187 23.7457 42.6798 24.5895C42.987 25.5821 43.1281 26.2426 43.9768 26.5661C44.7035 26.8436 57.6597 26.6948 60.4706 26.6948C61.5688 26.6948 62.6104 26.5201 63.2862 27.1758C63.9621 27.8314 63.9659 29.041 63.3266 29.6698L57.5761 33.8315C56.1198 34.9892 53.4107 36.8555 51.795 38.0555C47.9108 40.9403 47.787 40.0868 48.9131 43.7617L52.9931 56.3291C53.2245 57.0213 53.667 58.1426 53.7918 58.804C54.1 60.4264 52.3624 61.4018 51.1806 60.6414C49.3883 59.4875 46.3643 57.052 44.4472 55.7349C44.0862 55.4872 43.8817 55.3365 43.4996 55.0465C43.1924 54.8133 42.9054 54.651 42.5463 54.364C41.3886 53.4395 38.8532 51.7893 37.6935 50.8427C36.3025 49.708 35.7179 49.7253 34.3268 50.7112L22.7962 59.0987C21.2612 60.3064 19.7732 61.6869 18.4896 60.3275C17.7264 59.5182 18.0874 58.7406 18.3994 57.7806L22.4583 45.2881C23.0381 43.4824 24.1085 41.3252 23.1389 40.2817L11.6122 31.8903C11.2407 31.6446 10.9757 31.4017 10.6128 31.1588C10.2557 30.9198 10.0608 30.7498 9.66819 30.4676C8.3933 29.5518 8.76002 30.0778 8.02562 28.801V28.0906C8.27522 27.6903 8.46818 26.7879 9.65571 26.7015L9.65762 26.6996Z" fill="white"/>
</svg>
